<?xml version="1.0" ?>
<!-- Uploaded to: SVG Repo, www.svgrepo.com, Generator: SVG Repo Mixer Tools -->
<svg width="800px" height="800px" viewBox="0 0 64 64" xmlns="http://www.w3.org/2000/svg">
<defs>
<style>.cls-1{fill:none;stroke:#000000;stroke-linejoin:round;stroke-width:2px;}</style>
</defs>
<title/>
<g data-name="Layer 18" id="Layer_18">
<path class="cls-1" d="M34,16V10a6,6,0,0,0-6-6H24V8h4a2,2,0,0,1,2,2v6"/>
<path class="cls-1" d="M26,26.94A12,12,0,0,1,18,30h0A12,12,0,0,1,6,18V10A2,2,0,0,1,8,8h4V4H8a6,6,0,0,0-6,6v8A16,16,0,0,0,18,34h0a15.94,15.94,0,0,0,8-2.14"/>
<rect class="cls-1" height="8" width="4" x="12" y="2"/>
<rect class="cls-1" height="8" width="4" x="20" y="2"/>
<rect class="cls-1" height="46" width="36" x="26" y="16"/>
<rect class="cls-1" height="10" width="28" x="30" y="20"/>
<polyline class="cls-1" points="45 46 58 46 58 58 30 58 30 49"/>
<line class="cls-1" x1="29" x2="59" y1="34" y2="34"/>
<line class="cls-1" x1="29" x2="59" y1="38" y2="38"/>
<path class="cls-1" d="M18,34V56a2,2,0,0,0,2,2h0a2,2,0,0,0,2-2V48a2,2,0,0,1,2-2H34"/>
<circle class="cls-1" cx="38" cy="46" r="4"/>
</g>
</svg>