<svg version="1.1" id="Layer_1" xmlns="http://www.w3.org/2000/svg" xmlns:xlink="http://www.w3.org/1999/xlink" x="0px" y="0px"
	 width="100%" viewBox="0 0 500 500" enable-background="new 0 0 500 500" xml:space="preserve">
<path fill="#FFFFFF" opacity="1.000000" stroke="none" 
	d="
M274.000000,501.000000 
	C182.666687,501.000000 91.833374,501.000000 1.000049,501.000000 
	C1.000032,334.333405 1.000032,167.666794 1.000016,1.000138 
	C167.666565,1.000092 334.333130,1.000092 500.999756,1.000046 
	C500.999847,167.666519 500.999847,334.333038 500.999939,500.999786 
	C425.500000,501.000000 350.000000,501.000000 274.000000,501.000000 
M196.834824,301.556305 
	C198.208969,301.707794 199.583099,301.859283 200.907913,302.005341 
	C201.247009,299.957703 201.489395,298.493988 201.805664,296.584167 
	C204.414246,298.831787 204.528763,303.906891 209.367386,301.343719 
	C208.460876,299.641113 207.608429,298.040100 206.755997,296.439056 
	C207.190369,296.437836 207.624741,296.436646 208.059113,296.435425 
	C208.339691,293.792511 209.715363,289.494385 208.694321,288.818878 
	C205.701294,286.838745 201.754578,286.300079 197.228317,284.902435 
	C197.228317,288.980743 197.392197,291.446625 197.182129,293.880249 
	C196.972885,296.304504 196.388458,298.696411 195.944901,300.331696 
	C194.483459,296.287903 193.132431,292.198059 191.479172,288.234283 
	C191.089432,287.299835 189.710663,286.284149 188.733780,286.227936 
	C187.765167,286.172180 186.176865,287.049713 185.816147,287.915955 
	C183.953476,292.389038 182.397675,296.989929 180.339661,302.628998 
	C182.654770,301.884705 184.221848,301.866730 184.872559,301.085510 
	C187.358871,298.100494 189.479874,298.300812 192.122147,300.920105 
	C192.883484,301.674835 194.674454,301.390869 196.834824,301.556305 
M265.088562,266.643066 
	C261.522339,266.643066 257.956085,266.643066 254.004608,266.643066 
	C254.004608,249.113480 254.004608,232.523209 254.004608,215.854004 
	C249.856598,215.854004 246.117950,215.854004 242.291077,215.854004 
	C242.291077,236.327301 242.291077,256.537537 242.291077,276.825562 
	C250.393890,276.825562 258.192902,276.825562 266.917999,276.941132 
	C271.148590,276.941132 275.379150,276.941132 279.575623,276.941132 
	C279.575623,259.195129 279.575623,242.151627 279.575623,225.048706 
	C275.310425,225.048706 271.296112,225.048706 267.091217,225.048706 
	C267.091217,237.579315 267.134552,249.699005 267.041565,261.817657 
	C267.028534,263.514130 266.346680,265.205475 265.088562,266.643066 
M137.346756,277.003296 
	C138.215424,276.172485 139.836304,275.347198 139.842438,274.510071 
	C139.985107,255.035629 139.952774,235.559906 139.952774,215.813904 
	C133.554016,215.813904 127.459084,215.813904 121.059731,215.813904 
	C119.470680,226.825684 117.889313,237.784256 116.307945,248.742828 
	C115.966949,248.691238 115.625954,248.639664 115.284958,248.588074 
	C113.777786,237.724640 112.270622,226.861206 110.736610,215.804260 
	C104.451607,215.804260 98.358917,215.804260 92.297958,215.804260 
	C92.297958,236.308731 92.297958,256.549103 92.297958,276.681274 
	C96.026596,276.681274 99.431763,276.681274 103.120026,276.681274 
	C103.120026,263.504364 103.120026,250.648773 103.120026,237.793167 
	C103.357193,237.768082 103.594368,237.743011 103.831535,237.717926 
	C106.080788,250.738312 108.330048,263.758698 110.552734,276.625305 
	C114.571922,276.625305 118.134979,276.625305 121.604240,276.625305 
	C123.545967,264.856445 125.424278,253.471939 127.302597,242.087418 
	C127.808762,242.138412 128.314941,242.189407 128.821106,242.240402 
	C128.821106,253.767868 128.821106,265.295319 128.821106,277.004730 
	C131.758240,277.004730 134.082077,277.004730 137.346756,277.003296 
M174.106842,264.186005 
	C174.614655,269.004028 174.723526,274.189545 179.914658,276.602814 
	C184.302856,278.642853 188.558899,277.881561 191.536499,274.396515 
	C195.554962,279.126282 200.443649,275.974945 204.785309,277.139587 
	C204.785309,256.189972 204.785309,235.825317 204.785309,215.281906 
	C200.712616,215.281906 196.937897,215.281906 192.479126,215.281906 
	C192.479126,218.912552 192.479126,222.419418 192.479126,226.162598 
	C181.003616,221.561066 174.318848,226.015137 174.140305,237.786072 
	C174.011566,246.273987 174.085999,254.764984 174.106842,264.186005 
M327.341370,272.219177 
	C327.341370,267.158844 327.341370,262.098541 327.341370,257.038208 
	C327.777771,256.968414 328.214172,256.898621 328.650543,256.828827 
	C330.834808,263.486206 333.019073,270.143555 335.150879,276.641113 
	C339.575165,276.641113 343.761047,276.641113 348.324585,276.641113 
	C345.393219,267.873138 342.446075,259.600220 339.935272,251.196915 
	C339.238464,248.864807 339.281494,245.989151 339.947052,243.634811 
	C341.723053,237.352097 344.021851,231.217178 346.179810,224.825256 
	C341.527924,224.825256 337.558624,224.825256 333.490479,224.825256 
	C331.818512,229.363617 330.186646,233.793121 328.554749,238.222610 
	C328.146759,238.105957 327.738739,237.989288 327.330750,237.872620 
	C327.330750,230.433212 327.330750,222.993790 327.330750,215.420517 
	C323.030304,215.420517 319.155701,215.420517 315.325867,215.420517 
	C315.325867,236.099442 315.325867,256.462250 315.325867,276.788147 
	C319.430054,276.788147 323.200195,276.788147 327.130402,276.788147 
	C327.208588,275.435760 327.274811,274.290161 327.341370,272.219177 
M302.568390,224.035004 
	C300.010559,225.154587 297.452698,226.274170 295.724243,227.030731 
	C291.705109,222.543442 286.608124,225.663696 282.283539,224.510040 
	C282.283539,242.324921 282.283539,259.547546 282.283539,276.693298 
	C286.487762,276.693298 290.383545,276.693298 294.619690,276.693298 
	C294.619690,267.575989 294.618439,258.779999 294.620300,249.984009 
	C294.621002,246.655334 294.288086,243.277878 294.755035,240.015381 
	C295.058258,237.896790 296.532593,235.945816 297.482178,233.919739 
	C298.447906,235.888596 299.938263,237.776840 300.256134,239.845261 
	C300.730927,242.934601 300.380188,246.150848 300.380219,249.313110 
	C300.380371,258.425781 300.380310,267.538483 300.380310,276.683838 
	C304.810699,276.683838 308.699188,276.683838 312.788116,276.683838 
	C312.788116,262.562012 313.002289,248.768921 312.697876,234.987305 
	C312.545258,228.076431 309.879120,225.487503 302.568390,224.035004 
M170.205353,271.534241 
	C171.282181,266.833405 172.358994,262.132568 173.497391,257.162964 
	C168.217392,257.162964 164.320938,257.162964 160.064926,257.162964 
	C160.064926,259.806885 160.385712,262.174347 159.941772,264.388458 
	C159.685211,265.667938 158.195297,266.700134 157.260498,267.843628 
	C156.378326,266.813416 154.815552,265.833435 154.735153,264.744049 
	C154.432922,260.648987 154.613983,256.518250 154.613983,251.823624 
	C160.576797,251.823624 166.460251,251.823624 172.419235,251.823624 
	C172.419235,246.117874 172.876389,240.938904 172.316238,235.872375 
	C171.386108,227.459198 165.801773,223.606720 156.309677,224.078812 
	C147.521988,224.515839 142.175858,229.323959 141.975784,237.476761 
	C141.767654,245.956635 141.773056,254.451645 142.028961,262.929657 
	C142.207657,268.849640 144.031372,274.155304 150.235916,276.544464 
	C156.998276,279.148407 165.353134,277.243195 170.205353,271.534241 
M219.995575,235.530487 
	C219.995575,232.053253 219.995575,228.576019 219.995575,225.050354 
	C215.622208,225.050354 211.584030,225.050354 207.649139,225.050354 
	C207.649139,242.560394 207.649139,259.654999 207.649139,276.718719 
	C211.883713,276.718719 215.802170,276.718719 219.995575,276.718719 
	C219.995575,263.121216 219.995575,249.820648 219.995575,235.530487 
M376.095184,239.590668 
	C376.019989,241.248459 375.997681,242.910736 375.857971,244.563080 
	C375.611938,247.473434 377.038971,249.407150 379.784698,248.878647 
	C381.575775,248.533875 384.291046,246.680237 384.456299,245.254898 
	C385.326630,237.747879 385.517273,230.162064 385.960144,222.314529 
	C378.311035,221.927872 371.219269,221.604431 364.132416,221.195587 
	C360.845490,221.005966 358.379578,222.086212 358.187836,225.612915 
	C357.985596,229.332748 360.614441,230.307526 363.805573,230.306335 
	C368.058563,230.304764 372.311523,230.305969 376.876892,230.305969 
	C376.577271,233.760300 376.364746,236.210648 376.095184,239.590668 
M390.612915,223.991974 
	C390.410065,226.481628 389.728973,229.059692 390.167389,231.430786 
	C390.475098,233.094788 392.372986,235.753799 393.446350,235.699677 
	C395.278015,235.607346 398.412567,233.899475 398.569977,232.580322 
	C399.488647,224.880753 399.700684,217.096878 400.169342,209.031677 
	C392.386536,208.677216 385.252930,208.406952 378.126831,208.004135 
	C374.691345,207.809952 372.445160,209.175797 372.427307,212.658157 
	C372.410309,215.980209 374.740143,217.041626 377.852875,217.076599 
	C382.123413,217.124573 386.391144,217.420166 390.735229,217.612991 
	C390.735229,219.829071 390.735229,221.462219 390.612915,223.991974 
M305.569000,301.418152 
	C306.903900,301.620880 308.238800,301.823608 309.605286,302.031128 
	C310.729004,287.038239 310.590912,286.423157 305.931641,286.592804 
	C305.931641,289.130310 305.931641,291.687805 305.931641,294.478943 
	C301.640411,292.571198 302.355499,285.076935 295.940247,286.275879 
	C295.940247,291.671692 295.940247,296.727783 295.940247,301.952484 
	C302.732788,302.246155 297.535400,295.968475 300.697876,294.278046 
	C302.156830,296.457489 303.613800,298.634003 305.569000,301.418152 
M237.099579,294.677155 
	C237.323349,292.567596 238.280655,288.907440 237.648087,288.608185 
	C234.332901,287.039948 230.614990,286.323151 226.232849,285.082825 
	C226.232849,290.943268 226.043716,295.241852 226.368958,299.501129 
	C226.447937,300.535309 228.220871,301.440125 229.743469,302.917206 
	C230.246689,299.916168 230.488739,298.472626 230.803467,296.595612 
	C233.423233,298.867096 233.541916,303.910217 237.818069,301.633667 
	C237.347534,299.296600 236.928513,297.215363 237.099579,294.677155 
M261.235565,286.937042 
	C258.199982,286.572784 255.164368,286.208527 251.846344,285.810364 
	C251.846344,291.587585 251.846344,296.650452 251.846344,301.690125 
	C260.164856,302.550415 263.659332,301.385284 265.288971,297.085663 
	C266.850586,292.965607 265.592804,289.671692 261.235565,286.937042 
M326.474609,286.084106 
	C325.330994,286.988922 323.287354,287.815094 323.200226,288.812195 
	C322.831268,293.035767 323.043793,297.310089 323.043793,301.907318 
	C325.882935,301.907318 328.355194,302.198395 330.732819,301.847748 
	C335.953827,301.077820 338.860992,295.822998 336.787201,290.976929 
	C335.031525,286.874329 331.391083,285.996094 326.474609,286.084106 
M226.691803,259.139526 
	C230.934998,259.139526 235.178177,259.139526 239.352448,259.139526 
	C239.352448,256.033844 239.352448,253.648224 239.352448,251.029892 
	C236.170044,251.029892 233.359070,251.029892 230.548080,251.029892 
	C227.643906,251.029892 224.739746,251.029892 221.768021,251.029892 
	C221.768021,254.018738 221.768021,256.295471 221.768021,258.860474 
	C223.211609,258.961548 224.482681,259.050537 226.691803,259.139526 
M166.882172,299.739685 
	C172.650146,303.744751 176.776291,302.918701 180.207443,296.196716 
	C177.944748,296.854492 176.392548,297.625824 174.816284,297.678650 
	C173.055695,297.737640 170.400360,297.720520 169.720383,296.690033 
	C168.862366,295.389740 168.942368,292.533081 169.874084,291.288208 
	C170.608871,290.306488 173.254639,290.532867 175.031906,290.620880 
	C176.572342,290.697266 178.085052,291.332886 180.380188,291.917542 
	C177.060684,286.154083 173.347366,284.737762 169.156036,286.787964 
	C164.649887,288.992096 163.645767,293.473206 166.882172,299.739685 
M321.177795,301.362091 
	C320.838440,300.571503 320.713806,299.415619 320.116180,299.064301 
	C318.762482,298.268585 317.175659,297.869385 315.683655,297.308929 
	C317.256165,296.502289 318.840851,295.717590 320.386932,294.863190 
	C320.597046,294.747101 320.614136,294.281677 320.928497,293.384888 
	C319.166656,292.743835 317.405212,292.102936 315.643768,291.462036 
	C315.603271,291.063324 315.562805,290.664612 315.522339,290.265900 
	C317.329437,289.765533 319.136566,289.265137 320.952850,288.762207 
	C320.351624,285.575592 319.931580,285.465668 311.884949,286.512939 
	C311.884949,291.571838 311.884949,296.655579 311.884949,301.928741 
	C314.957245,301.928741 317.771149,301.928741 321.177795,301.362091 
M241.799210,302.018005 
	C242.463608,302.027405 243.145966,302.139618 243.789078,302.027222 
	C245.875397,301.662598 247.947327,301.215668 250.024796,300.800446 
	C248.272781,299.855438 246.520782,298.910431 244.119690,297.615295 
	C244.715469,297.041840 245.378738,296.207306 246.222656,295.642853 
	C247.185242,294.999023 248.308777,294.595856 249.362366,294.088074 
	C248.231369,293.483429 247.088913,292.899017 245.973953,292.266144 
	C245.356766,291.915833 244.785599,291.484406 243.011688,290.300934 
	C246.160995,289.622253 248.046753,289.215851 249.953552,288.804932 
	C248.865662,285.622192 247.573090,285.356140 240.000931,286.794708 
	C240.296753,291.721252 240.599213,296.758301 241.799210,302.018005 
M219.672928,295.154022 
	C220.870834,292.553986 219.156509,292.593628 217.338577,292.282898 
	C216.408447,292.123871 215.634903,291.048737 213.846176,289.648193 
	C216.178467,289.426147 217.036865,289.492584 217.785919,289.237640 
	C218.853821,288.874237 219.841522,288.275146 220.863480,287.776703 
	C219.736343,287.212311 218.653244,286.313324 217.472290,286.157898 
	C215.434067,285.889709 213.335022,286.083588 211.288391,286.083588 
	C211.288391,291.786407 211.288391,296.707611 211.288391,301.750580 
	C214.610199,301.750580 217.679810,301.750580 220.749405,301.750580 
	C220.903931,301.197784 221.058456,300.645020 221.212982,300.092224 
	C219.200302,299.473145 217.187637,298.854095 215.174973,298.235016 
	C215.021011,297.772003 214.867050,297.309021 214.713074,296.846008 
	C216.103821,296.381134 217.494568,295.916260 219.672928,295.154022 
M275.672943,295.153992 
	C276.870789,292.554047 275.156586,292.593628 273.338623,292.282898 
	C272.408478,292.123901 271.634949,291.048737 269.846191,289.648193 
	C272.177368,289.426270 273.036316,289.492645 273.785919,289.237610 
	C274.853851,288.874359 275.841522,288.275208 276.863495,287.776825 
	C275.736389,287.212402 274.653320,286.313354 273.472382,286.157928 
	C271.434235,285.889709 269.335266,286.083588 267.288727,286.083588 
	C267.288727,291.786530 267.288727,296.707733 267.288727,301.750549 
	C270.610321,301.750549 273.679901,301.750549 276.749512,301.750549 
	C276.903992,301.197815 277.058502,300.645111 277.212982,300.092377 
	C275.200317,299.473267 273.187622,298.854126 271.174927,298.234985 
	C271.020996,297.771973 270.867065,297.308960 270.713135,296.845947 
	C272.103851,296.381104 273.494598,295.916290 275.672943,295.153992 
M282.485901,290.343353 
	C283.695190,289.997345 284.932190,289.724762 286.105042,289.282227 
	C287.050995,288.925293 287.919525,288.363190 288.822418,287.892090 
	C287.888763,287.280121 287.000275,286.245667 286.012482,286.140015 
	C283.606598,285.882721 281.154663,286.056183 278.216827,286.056183 
	C278.216827,290.874786 278.025604,295.160980 278.349365,299.407898 
	C278.431824,300.489136 280.149078,301.445770 281.954254,303.340210 
	C282.227936,299.743195 282.362274,297.977448 282.438873,296.970764 
	C284.352081,295.740631 285.691711,294.879272 287.031342,294.017914 
	C285.690826,293.380646 284.339050,292.765381 283.019348,292.087585 
	C282.755798,291.952240 282.614746,291.578339 282.485901,290.343353 
M270.651825,221.114441 
	C273.593231,221.114441 276.534668,221.114441 279.573853,221.114441 
	C279.573853,217.934204 279.573853,215.361557 279.573853,212.519470 
	C275.401459,212.519470 271.500427,212.519470 266.975403,212.519470 
	C268.462952,215.509888 264.009613,219.596497 270.651825,221.114441 
M208.199951,212.469955 
	C207.838730,215.241165 207.477509,218.012360 207.118103,220.769592 
	C212.015839,220.769592 215.920135,220.769592 219.722595,220.769592 
	C219.722595,217.831650 219.722595,215.244965 219.722595,212.276199 
	C215.981155,212.276199 212.519531,212.276199 208.199951,212.469955 
M293.886078,298.253357 
	C293.884918,295.096527 294.124084,291.911072 293.753387,288.798248 
	C293.621948,287.694824 292.005219,286.768250 291.066559,285.760956 
	C290.738953,286.096588 290.411346,286.432251 290.083740,286.767883 
	C290.083740,291.704529 290.083740,296.641144 290.083740,301.577759 
	C290.477142,301.865814 290.870544,302.153870 291.263916,302.441925 
	C292.137573,301.358490 293.011230,300.275055 293.886078,298.253357 
z"/>
<path fill="#393845" opacity="1.000000" stroke="none" 
	d="
M136.876343,277.004028 
	C134.082077,277.004730 131.758240,277.004730 128.821106,277.004730 
	C128.821106,265.295319 128.821106,253.767868 128.821106,242.240402 
	C128.314941,242.189407 127.808762,242.138412 127.302597,242.087418 
	C125.424278,253.471939 123.545967,264.856445 121.604240,276.625305 
	C118.134979,276.625305 114.571922,276.625305 110.552734,276.625305 
	C108.330048,263.758698 106.080788,250.738312 103.831535,237.717926 
	C103.594368,237.743011 103.357193,237.768082 103.120026,237.793167 
	C103.120026,250.648773 103.120026,263.504364 103.120026,276.681274 
	C99.431763,276.681274 96.026596,276.681274 92.297958,276.681274 
	C92.297958,256.549103 92.297958,236.308731 92.297958,215.804260 
	C98.358917,215.804260 104.451607,215.804260 110.736610,215.804260 
	C112.270622,226.861206 113.777786,237.724640 115.284958,248.588074 
	C115.625954,248.639664 115.966949,248.691238 116.307945,248.742828 
	C117.889313,237.784256 119.470680,226.825684 121.059731,215.813904 
	C127.459084,215.813904 133.554016,215.813904 139.952774,215.813904 
	C139.952774,235.559906 139.985107,255.035629 139.842438,274.510071 
	C139.836304,275.347198 138.215424,276.172485 136.876343,277.004028 
z"/>
<path fill="#3B3A47" opacity="1.000000" stroke="none" 
	d="
M174.088333,263.720306 
	C174.085999,254.764984 174.011566,246.273987 174.140305,237.786072 
	C174.318848,226.015137 181.003616,221.561066 192.479126,226.162598 
	C192.479126,222.419418 192.479126,218.912552 192.479126,215.281906 
	C196.937897,215.281906 200.712616,215.281906 204.785309,215.281906 
	C204.785309,235.825317 204.785309,256.189972 204.785309,277.139587 
	C200.443649,275.974945 195.554962,279.126282 191.536499,274.396515 
	C188.558899,277.881561 184.302856,278.642853 179.914658,276.602814 
	C174.723526,274.189545 174.614655,269.004028 174.088333,263.720306 
M186.606491,257.272217 
	C186.656281,259.262817 186.337173,261.358673 186.866074,263.212585 
	C187.336380,264.861023 188.746658,266.241333 189.742081,267.739990 
	C190.655350,266.345856 192.312134,264.976562 192.359756,263.553436 
	C192.642517,255.100159 192.701614,246.629959 192.446701,238.177170 
	C192.402496,236.710983 190.501083,235.300797 189.457489,233.864746 
	C188.524994,235.374191 186.874313,236.843536 186.787399,238.400192 
	C186.454620,244.359482 186.624435,250.346848 186.606491,257.272217 
z"/>
<path fill="#393845" opacity="1.000000" stroke="none" 
	d="
M327.341187,272.681885 
	C327.274811,274.290161 327.208588,275.435760 327.130402,276.788147 
	C323.200195,276.788147 319.430054,276.788147 315.325867,276.788147 
	C315.325867,256.462250 315.325867,236.099442 315.325867,215.420517 
	C319.155701,215.420517 323.030304,215.420517 327.330750,215.420517 
	C327.330750,222.993790 327.330750,230.433212 327.330750,237.872620 
	C327.738739,237.989288 328.146759,238.105957 328.554749,238.222610 
	C330.186646,233.793121 331.818512,229.363617 333.490479,224.825256 
	C337.558624,224.825256 341.527924,224.825256 346.179810,224.825256 
	C344.021851,231.217178 341.723053,237.352097 339.947052,243.634811 
	C339.281494,245.989151 339.238464,248.864807 339.935272,251.196915 
	C342.446075,259.600220 345.393219,267.873138 348.324585,276.641113 
	C343.761047,276.641113 339.575165,276.641113 335.150879,276.641113 
	C333.019073,270.143555 330.834808,263.486206 328.650543,256.828827 
	C328.214172,256.898621 327.777771,256.968414 327.341370,257.038208 
	C327.341370,262.098541 327.341370,267.158844 327.341187,272.681885 
z"/>
<path fill="#3F3E4A" opacity="1.000000" stroke="none" 
	d="
M302.973816,224.050629 
	C309.879120,225.487503 312.545258,228.076431 312.697876,234.987305 
	C313.002289,248.768921 312.788116,262.562012 312.788116,276.683838 
	C308.699188,276.683838 304.810699,276.683838 300.380310,276.683838 
	C300.380310,267.538483 300.380371,258.425781 300.380219,249.313110 
	C300.380188,246.150848 300.730927,242.934601 300.256134,239.845261 
	C299.938263,237.776840 298.447906,235.888596 297.482178,233.919739 
	C296.532593,235.945816 295.058258,237.896790 294.755035,240.015381 
	C294.288086,243.277878 294.621002,246.655334 294.620300,249.984009 
	C294.618439,258.779999 294.619690,267.575989 294.619690,276.693298 
	C290.383545,276.693298 286.487762,276.693298 282.283539,276.693298 
	C282.283539,259.547546 282.283539,242.324921 282.283539,224.510040 
	C286.608124,225.663696 291.705109,222.543442 295.724243,227.030731 
	C297.452698,226.274170 300.010559,225.154587 302.973816,224.050629 
z"/>
<path fill="#3B3A47" opacity="1.000000" stroke="none" 
	d="
M170.035095,271.872742 
	C165.353134,277.243195 156.998276,279.148407 150.235916,276.544464 
	C144.031372,274.155304 142.207657,268.849640 142.028961,262.929657 
	C141.773056,254.451645 141.767654,245.956635 141.975784,237.476761 
	C142.175858,229.323959 147.521988,224.515839 156.309677,224.078812 
	C165.801773,223.606720 171.386108,227.459198 172.316238,235.872375 
	C172.876389,240.938904 172.419235,246.117874 172.419235,251.823624 
	C166.460251,251.823624 160.576797,251.823624 154.613983,251.823624 
	C154.613983,256.518250 154.432922,260.648987 154.735153,264.744049 
	C154.815552,265.833435 156.378326,266.813416 157.260498,267.843628 
	C158.195297,266.700134 159.685211,265.667938 159.941772,264.388458 
	C160.385712,262.174347 160.064926,259.806885 160.064926,257.162964 
	C164.320938,257.162964 168.217392,257.162964 173.497391,257.162964 
	C172.358994,262.132568 171.282181,266.833405 170.035095,271.872742 
M154.200180,238.115906 
	C154.200180,240.531174 154.200180,242.946457 154.200180,245.563538 
	C156.388397,245.563538 158.081192,245.563538 160.135925,245.563538 
	C160.135925,242.844879 160.412888,240.369308 160.038177,237.996689 
	C159.789932,236.424850 158.607834,235.000488 157.843781,233.510117 
	C156.659058,234.772125 155.474350,236.034149 154.200180,238.115906 
z"/>
<path fill="#373643" opacity="1.000000" stroke="none" 
	d="
M265.991913,276.825562 
	C258.192902,276.825562 250.393890,276.825562 242.291077,276.825562 
	C242.291077,256.537537 242.291077,236.327301 242.291077,215.854004 
	C246.117950,215.854004 249.856598,215.854004 254.004608,215.854004 
	C254.004608,232.523209 254.004608,249.113480 254.004608,266.643066 
	C257.956085,266.643066 261.522339,266.643066 265.538147,267.227173 
	C265.989105,270.816071 265.990509,273.820801 265.991913,276.825562 
z"/>
<path fill="#3E3D4A" opacity="1.000000" stroke="none" 
	d="
M266.454956,276.883362 
	C265.990509,273.820801 265.989105,270.816071 265.981079,267.355255 
	C266.346680,265.205475 267.028534,263.514130 267.041565,261.817657 
	C267.134552,249.699005 267.091217,237.579315 267.091217,225.048706 
	C271.296112,225.048706 275.310425,225.048706 279.575623,225.048706 
	C279.575623,242.151627 279.575623,259.195129 279.575623,276.941132 
	C275.379150,276.941132 271.148590,276.941132 266.454956,276.883362 
z"/>
<path fill="#3E3D4A" opacity="1.000000" stroke="none" 
	d="
M219.995575,236.025269 
	C219.995575,249.820648 219.995575,263.121216 219.995575,276.718719 
	C215.802170,276.718719 211.883713,276.718719 207.649139,276.718719 
	C207.649139,259.654999 207.649139,242.560394 207.649139,225.050354 
	C211.584030,225.050354 215.622208,225.050354 219.995575,225.050354 
	C219.995575,228.576019 219.995575,232.053253 219.995575,236.025269 
z"/>
<path fill="#1FCD99" opacity="1.000000" stroke="none" 
	d="
M376.123688,239.125824 
	C376.364746,236.210648 376.577271,233.760300 376.876892,230.305969 
	C372.311523,230.305969 368.058563,230.304764 363.805573,230.306335 
	C360.614441,230.307526 357.985596,229.332748 358.187836,225.612915 
	C358.379578,222.086212 360.845490,221.005966 364.132416,221.195587 
	C371.219269,221.604431 378.311035,221.927872 385.960144,222.314529 
	C385.517273,230.162064 385.326630,237.747879 384.456299,245.254898 
	C384.291046,246.680237 381.575775,248.533875 379.784698,248.878647 
	C377.038971,249.407150 375.611938,247.473434 375.857971,244.563080 
	C375.997681,242.910736 376.019989,241.248459 376.123688,239.125824 
z"/>
<path fill="#1ECC99" opacity="1.000000" stroke="none" 
	d="
M390.674072,223.543671 
	C390.735229,221.462219 390.735229,219.829071 390.735229,217.612991 
	C386.391144,217.420166 382.123413,217.124573 377.852875,217.076599 
	C374.740143,217.041626 372.410309,215.980209 372.427307,212.658157 
	C372.445160,209.175797 374.691345,207.809952 378.126831,208.004135 
	C385.252930,208.406952 392.386536,208.677216 400.169342,209.031677 
	C399.700684,217.096878 399.488647,224.880753 398.569977,232.580322 
	C398.412567,233.899475 395.278015,235.607346 393.446350,235.699677 
	C392.372986,235.753799 390.475098,233.094788 390.167389,231.430786 
	C389.728973,229.059692 390.410065,226.481628 390.674072,223.543671 
z"/>
<path fill="#464551" opacity="1.000000" stroke="none" 
	d="
M305.319885,301.114319 
	C303.613800,298.634003 302.156830,296.457489 300.697876,294.278046 
	C297.535400,295.968475 302.732788,302.246155 295.940247,301.952484 
	C295.940247,296.727783 295.940247,291.671692 295.940247,286.275879 
	C302.355499,285.076935 301.640411,292.571198 305.931641,294.478943 
	C305.931641,291.687805 305.931641,289.130310 305.931641,286.592804 
	C310.590912,286.423157 310.729004,287.038239 309.605286,302.031128 
	C308.238800,301.823608 306.903900,301.620880 305.319885,301.114319 
z"/>
<path fill="#4A4955" opacity="1.000000" stroke="none" 
	d="
M195.968536,301.102478 
	C196.388458,298.696411 196.972885,296.304504 197.182129,293.880249 
	C197.392197,291.446625 197.228317,288.980743 197.228317,284.902435 
	C201.754578,286.300079 205.701294,286.838745 208.694321,288.818878 
	C209.715363,289.494385 208.339691,293.792511 208.059113,296.435425 
	C207.624741,296.436646 207.190369,296.437836 206.755997,296.439056 
	C207.608429,298.040100 208.460876,299.641113 209.367386,301.343719 
	C204.528763,303.906891 204.414246,298.831787 201.805664,296.584167 
	C201.489395,298.493988 201.247009,299.957703 200.907913,302.005341 
	C199.583099,301.859283 198.208969,301.707794 196.401703,301.449890 
	C195.968582,301.343475 195.968536,301.102478 195.968536,301.102478 
z"/>
<path fill="#4A4955" opacity="1.000000" stroke="none" 
	d="
M236.804535,294.905640 
	C236.928513,297.215363 237.347534,299.296600 237.818069,301.633667 
	C233.541916,303.910217 233.423233,298.867096 230.803467,296.595612 
	C230.488739,298.472626 230.246689,299.916168 229.743469,302.917206 
	C228.220871,301.440125 226.447937,300.535309 226.368958,299.501129 
	C226.043716,295.241852 226.232849,290.943268 226.232849,285.082825 
	C230.614990,286.323151 234.332901,287.039948 237.648087,288.608185 
	C238.280655,288.907440 237.323349,292.567596 236.804535,294.905640 
z"/>
<path fill="#464551" opacity="1.000000" stroke="none" 
	d="
M261.606903,287.083191 
	C265.592804,289.671692 266.850586,292.965607 265.288971,297.085663 
	C263.659332,301.385284 260.164856,302.550415 251.846344,301.690125 
	C251.846344,296.650452 251.846344,291.587585 251.846344,285.810364 
	C255.164368,286.208527 258.199982,286.572784 261.606903,287.083191 
M257.413422,298.716034 
	C260.547211,298.311615 262.314148,296.587250 261.832001,293.382935 
	C261.342438,290.129486 259.088989,289.223389 255.061661,289.896240 
	C255.605988,292.916779 256.123535,295.788635 257.413422,298.716034 
z"/>
<path fill="#444350" opacity="1.000000" stroke="none" 
	d="
M326.913116,286.084106 
	C331.391083,285.996094 335.031525,286.874329 336.787201,290.976929 
	C338.860992,295.822998 335.953827,301.077820 330.732819,301.847748 
	C328.355194,302.198395 325.882935,301.907318 323.043793,301.907318 
	C323.043793,297.310089 322.831268,293.035767 323.200226,288.812195 
	C323.287354,287.815094 325.330994,286.988922 326.913116,286.084106 
M329.902161,289.714508 
	C328.937683,290.355225 327.273987,290.877380 327.141479,291.659119 
	C326.763519,293.888672 327.008667,296.223907 327.008667,300.204346 
	C329.765381,298.154083 332.403534,297.176849 332.793427,295.632202 
	C333.204559,294.003296 331.469696,291.832733 329.902161,289.714508 
z"/>
<path fill="#464551" opacity="1.000000" stroke="none" 
	d="
M195.956726,300.717102 
	C195.968536,301.102478 195.968582,301.343475 195.980957,301.463318 
	C194.674454,301.390869 192.883484,301.674835 192.122147,300.920105 
	C189.479874,298.300812 187.358871,298.100494 184.872559,301.085510 
	C184.221848,301.866730 182.654770,301.884705 180.339661,302.628998 
	C182.397675,296.989929 183.953476,292.389038 185.816147,287.915955 
	C186.176865,287.049713 187.765167,286.172180 188.733780,286.227936 
	C189.710663,286.284149 191.089432,287.299835 191.479172,288.234283 
	C193.132431,292.198059 194.483459,296.287903 195.956726,300.717102 
z"/>
<path fill="#3E3D4A" opacity="1.000000" stroke="none" 
	d="
M226.222778,259.139526 
	C224.482681,259.050537 223.211609,258.961548 221.768021,258.860474 
	C221.768021,256.295471 221.768021,254.018738 221.768021,251.029892 
	C224.739746,251.029892 227.643906,251.029892 230.548080,251.029892 
	C233.359070,251.029892 236.170044,251.029892 239.352448,251.029892 
	C239.352448,253.648224 239.352448,256.033844 239.352448,259.139526 
	C235.178177,259.139526 230.934998,259.139526 226.222778,259.139526 
z"/>
<path fill="#494854" opacity="1.000000" stroke="none" 
	d="
M166.631638,299.455688 
	C163.645767,293.473206 164.649887,288.992096 169.156036,286.787964 
	C173.347366,284.737762 177.060684,286.154083 180.380188,291.917542 
	C178.085052,291.332886 176.572342,290.697266 175.031906,290.620880 
	C173.254639,290.532867 170.608871,290.306488 169.874084,291.288208 
	C168.942368,292.533081 168.862366,295.389740 169.720383,296.690033 
	C170.400360,297.720520 173.055695,297.737640 174.816284,297.678650 
	C176.392548,297.625824 177.944748,296.854492 180.207443,296.196716 
	C176.776291,302.918701 172.650146,303.744751 166.631638,299.455688 
z"/>
<path fill="#464551" opacity="1.000000" stroke="none" 
	d="
M320.881409,301.645416 
	C317.771149,301.928741 314.957245,301.928741 311.884949,301.928741 
	C311.884949,296.655579 311.884949,291.571838 311.884949,286.512939 
	C319.931580,285.465668 320.351624,285.575592 320.952850,288.762207 
	C319.136566,289.265137 317.329437,289.765533 315.522339,290.265900 
	C315.562805,290.664612 315.603271,291.063324 315.643768,291.462036 
	C317.405212,292.102936 319.166656,292.743835 320.928497,293.384888 
	C320.614136,294.281677 320.597046,294.747101 320.386932,294.863190 
	C318.840851,295.717590 317.256165,296.502289 315.683655,297.308929 
	C317.175659,297.869385 318.762482,298.268585 320.116180,299.064301 
	C320.713806,299.415619 320.838440,300.571503 320.881409,301.645416 
z"/>
<path fill="#4A4955" opacity="1.000000" stroke="none" 
	d="
M241.350449,301.906677 
	C240.599213,296.758301 240.296753,291.721252 240.000931,286.794708 
	C247.573090,285.356140 248.865662,285.622192 249.953552,288.804932 
	C248.046753,289.215851 246.160995,289.622253 243.011688,290.300934 
	C244.785599,291.484406 245.356766,291.915833 245.973953,292.266144 
	C247.088913,292.899017 248.231369,293.483429 249.362366,294.088074 
	C248.308777,294.595856 247.185242,294.999023 246.222656,295.642853 
	C245.378738,296.207306 244.715469,297.041840 244.119690,297.615295 
	C246.520782,298.910431 248.272781,299.855438 250.024796,300.800415 
	C247.947327,301.215668 245.875397,301.662598 243.789078,302.027222 
	C243.145966,302.139618 242.463608,302.027405 241.350449,301.906677 
z"/>
<path fill="#444350" opacity="1.000000" stroke="none" 
	d="
M219.279114,295.302704 
	C217.494568,295.916260 216.103821,296.381134 214.713074,296.846008 
	C214.867050,297.309021 215.021011,297.772003 215.174973,298.235016 
	C217.187637,298.854095 219.200302,299.473145 221.212982,300.092224 
	C221.058456,300.645020 220.903931,301.197784 220.749405,301.750580 
	C217.679810,301.750580 214.610199,301.750580 211.288391,301.750580 
	C211.288391,296.707611 211.288391,291.786407 211.288391,286.083588 
	C213.335022,286.083588 215.434067,285.889709 217.472290,286.157898 
	C218.653244,286.313324 219.736343,287.212311 220.863480,287.776703 
	C219.841522,288.275146 218.853821,288.874237 217.785919,289.237640 
	C217.036865,289.492584 216.178467,289.426147 213.846176,289.648193 
	C215.634903,291.048737 216.408447,292.123871 217.338577,292.282898 
	C219.156509,292.593628 220.870834,292.553986 219.279114,295.302704 
z"/>
<path fill="#444350" opacity="1.000000" stroke="none" 
	d="
M275.279114,295.302734 
	C273.494598,295.916290 272.103851,296.381104 270.713135,296.845947 
	C270.867065,297.308960 271.020996,297.771973 271.174927,298.234985 
	C273.187622,298.854126 275.200317,299.473267 277.212982,300.092377 
	C277.058502,300.645111 276.903992,301.197815 276.749512,301.750549 
	C273.679901,301.750549 270.610321,301.750549 267.288727,301.750549 
	C267.288727,296.707733 267.288727,291.786530 267.288727,286.083588 
	C269.335266,286.083588 271.434235,285.889709 273.472382,286.157928 
	C274.653320,286.313354 275.736389,287.212402 276.863495,287.776825 
	C275.841522,288.275208 274.853851,288.874359 273.785919,289.237610 
	C273.036316,289.492645 272.177368,289.426270 269.846191,289.648193 
	C271.634949,291.048737 272.408478,292.123901 273.338623,292.282898 
	C275.156586,292.593628 276.870789,292.554047 275.279114,295.302734 
z"/>
<path fill="#4E4D58" opacity="1.000000" stroke="none" 
	d="
M282.451538,290.828918 
	C282.614746,291.578339 282.755798,291.952240 283.019348,292.087585 
	C284.339050,292.765381 285.690826,293.380646 287.031342,294.017914 
	C285.691711,294.879272 284.352081,295.740631 282.438873,296.970764 
	C282.362274,297.977448 282.227936,299.743195 281.954254,303.340210 
	C280.149078,301.445770 278.431824,300.489136 278.349365,299.407898 
	C278.025604,295.160980 278.216827,290.874786 278.216827,286.056183 
	C281.154663,286.056183 283.606598,285.882721 286.012482,286.140015 
	C287.000275,286.245667 287.888763,287.280121 288.822418,287.892090 
	C287.919525,288.363190 287.050995,288.925293 286.105042,289.282227 
	C284.932190,289.724762 283.695190,289.997345 282.451538,290.828918 
z"/>
<path fill="#464551" opacity="1.000000" stroke="none" 
	d="
M270.181427,221.113113 
	C264.009613,219.596497 268.462952,215.509888 266.975403,212.519470 
	C271.500427,212.519470 275.401459,212.519470 279.573853,212.519470 
	C279.573853,215.361557 279.573853,217.934204 279.573853,221.114441 
	C276.534668,221.114441 273.593231,221.114441 270.181427,221.113113 
z"/>
<path fill="#464551" opacity="1.000000" stroke="none" 
	d="
M208.628937,212.373077 
	C212.519531,212.276199 215.981155,212.276199 219.722595,212.276199 
	C219.722595,215.244965 219.722595,217.831650 219.722595,220.769592 
	C215.920135,220.769592 212.015839,220.769592 207.118103,220.769592 
	C207.477509,218.012360 207.838730,215.241165 208.628937,212.373077 
z"/>
<path fill="#464551" opacity="1.000000" stroke="none" 
	d="
M293.885498,298.722473 
	C293.011230,300.275055 292.137573,301.358490 291.263916,302.441925 
	C290.870544,302.153870 290.477142,301.865814 290.083740,301.577759 
	C290.083740,296.641144 290.083740,291.704529 290.083740,286.767883 
	C290.411346,286.432251 290.738953,286.096588 291.066559,285.760956 
	C292.005219,286.768250 293.621948,287.694824 293.753387,288.798248 
	C294.124084,291.911072 293.884918,295.096527 293.885498,298.722473 
z"/>
<path fill="#F3F3F4" opacity="1.000000" stroke="none" 
	d="
M186.606567,256.797974 
	C186.624435,250.346848 186.454620,244.359482 186.787399,238.400192 
	C186.874313,236.843536 188.524994,235.374191 189.457489,233.864746 
	C190.501083,235.300797 192.402496,236.710983 192.446701,238.177170 
	C192.701614,246.629959 192.642517,255.100159 192.359756,263.553436 
	C192.312134,264.976562 190.655350,266.345856 189.742065,267.739990 
	C188.746658,266.241333 187.336380,264.861023 186.866074,263.212585 
	C186.337173,261.358673 186.656281,259.262817 186.606567,256.797974 
z"/>
<path fill="#EFEFF0" opacity="1.000000" stroke="none" 
	d="
M154.244904,237.706024 
	C155.474350,236.034149 156.659058,234.772125 157.843781,233.510117 
	C158.607834,235.000488 159.789932,236.424850 160.038177,237.996689 
	C160.412888,240.369308 160.135925,242.844879 160.135925,245.563538 
	C158.081192,245.563538 156.388397,245.563538 154.200180,245.563538 
	C154.200180,242.946457 154.200180,240.531174 154.244904,237.706024 
z"/>
<path fill="#EFEFF0" opacity="1.000000" stroke="none" 
	d="
M257.027222,298.688293 
	C256.123535,295.788635 255.605988,292.916779 255.061661,289.896240 
	C259.088989,289.223389 261.342438,290.129486 261.832001,293.382935 
	C262.314148,296.587250 260.547211,298.311615 257.027222,298.688293 
z"/>
<path fill="#F3F3F4" opacity="1.000000" stroke="none" 
	d="
M330.287292,289.806671 
	C331.469696,291.832733 333.204559,294.003296 332.793427,295.632202 
	C332.403534,297.176849 329.765381,298.154083 327.008667,300.204346 
	C327.008667,296.223907 326.763519,293.888672 327.141479,291.659119 
	C327.273987,290.877380 328.937683,290.355225 330.287292,289.806671 
z"/>
</svg>