<svg version="1.1" id="Layer_1" xmlns="http://www.w3.org/2000/svg" xmlns:xlink="http://www.w3.org/1999/xlink" x="0px" y="0px"
	 width="100%" viewBox="0 0 487 255" enable-background="new 0 0 487 255" xml:space="preserve">
<path fill="#000000" opacity="1.000000" stroke="none" 
	d="
M327.000000,256.000000 
	C218.036545,256.000000 109.573105,256.000000 1.054828,256.000000 
	C1.054828,171.065216 1.054828,86.130386 1.054828,1.097781 
	C163.213409,1.097781 325.426880,1.097781 487.820190,1.097781 
	C487.820190,85.999695 487.820190,170.999817 487.820190,256.000000 
	C434.463806,256.000000 380.981903,256.000000 327.000000,256.000000 
M240.604050,162.279343 
	C240.376602,162.445236 240.241379,162.667297 240.107178,163.868820 
	C240.083191,165.998398 240.027191,168.128174 240.041031,170.257507 
	C240.088730,177.605316 240.610977,178.081467 248.881897,177.736023 
	C252.182251,177.792389 255.491730,178.029099 258.780823,177.862640 
	C263.652283,177.616135 265.853607,175.125168 265.924164,170.240646 
	C265.997772,165.147263 263.636871,162.106277 258.877197,161.992523 
	C254.294754,161.883041 249.698380,162.355972 244.443344,162.367233 
	C243.285233,162.284363 242.127121,162.201477 240.604050,162.279343 
M181.110458,173.762909 
	C181.975143,175.024139 182.839828,176.285370 183.704498,177.546600 
	C187.480133,174.535751 191.229309,177.145508 195.805679,177.697144 
	C198.135529,177.328720 200.465378,176.960281 202.795227,176.591858 
	C202.702133,176.333801 202.609039,176.075745 202.515945,175.817688 
	C204.554871,176.544449 206.593781,177.271194 207.979370,177.765091 
	C208.632294,174.134033 208.993164,171.564743 209.571991,169.045547 
	C210.357010,165.629120 209.489166,163.207474 205.975616,162.016678 
	C199.943085,159.972153 197.225220,162.016281 196.936432,168.448135 
	C196.853699,170.290451 195.701324,172.084732 194.948685,173.147263 
	C194.150375,170.484741 193.644226,167.679153 192.438110,165.216339 
	C191.773300,163.858856 189.941254,162.280304 188.619812,162.266190 
	C187.367645,162.252838 185.746384,163.931046 184.907043,165.257416 
	C183.355881,167.708710 182.257645,170.446625 180.676163,172.502701 
	C178.520905,172.651260 176.362289,172.946243 174.211563,172.897003 
	C172.772232,172.864029 170.882401,172.780792 170.051010,171.905838 
	C169.332596,171.149765 169.251328,168.743118 169.924759,167.976669 
	C170.749008,167.038559 172.668655,166.680206 174.086395,166.740158 
	C175.986710,166.820480 177.859909,167.541931 180.460205,168.157471 
	C177.793549,162.055496 174.115906,160.472351 169.264236,162.372070 
	C165.136292,163.988403 163.346512,168.169678 164.860504,172.660019 
	C166.396667,177.216110 170.612213,179.625473 175.071442,177.811752 
	C177.331940,176.892303 179.051773,174.643585 181.110458,173.762909 
M91.501686,110.704384 
	C91.334068,118.828529 91.051895,126.952660 91.051300,135.076813 
	C91.051033,138.674438 91.620575,142.272110 91.997574,146.655731 
	C91.997574,148.441666 91.997574,150.227600 91.997574,151.909836 
	C101.998322,154.647308 103.785667,153.396393 103.802132,143.965408 
	C103.814949,136.625000 103.804703,129.284561 103.804703,121.944130 
	C106.283112,130.047073 107.814339,138.171051 109.044563,146.340347 
	C109.698341,150.681763 111.106125,153.053314 116.247276,153.020874 
	C121.294792,152.989029 122.354759,150.561264 122.950180,146.436127 
	C124.181519,137.905273 125.750923,129.423218 127.181290,120.921082 
	C128.191345,129.984558 128.324905,138.953796 128.132309,147.916031 
	C128.042480,152.095886 130.107330,153.009491 133.688293,152.875427 
	C136.968018,152.752655 140.007217,153.096893 139.963318,148.168625 
	C139.807632,130.694321 139.867966,113.217445 139.961731,95.742165 
	C139.979599,92.414261 138.886597,90.771706 135.365097,90.933701 
	C131.876938,91.094154 128.375626,91.032448 124.881447,90.978653 
	C121.935089,90.933289 120.355667,91.945000 120.023529,95.216774 
	C119.235970,102.974892 118.109474,110.699493 117.050919,118.428185 
	C116.905327,119.491226 116.366623,120.500427 116.009911,121.534561 
	C114.763947,118.323593 114.338844,115.385544 113.960770,112.441467 
	C113.559059,109.313301 113.223152,106.176674 112.821648,103.048477 
	C111.194069,90.367798 110.055450,89.533737 97.574753,91.181442 
	C94.009674,91.652115 92.181053,93.355667 92.158310,97.011032 
	C92.131393,101.336700 91.998505,105.661720 91.501686,110.704384 
M271.405334,152.778030 
	C279.908386,152.765762 279.930634,152.765793 279.938080,146.014389 
	C279.953125,132.365234 279.767212,118.712669 280.032471,105.068665 
	C280.129303,100.087585 277.524902,99.786827 273.785004,99.891640 
	C270.141479,99.993759 266.826202,99.613205 266.990692,105.116646 
	C267.298859,115.427299 266.869873,125.759682 267.162476,136.071259 
	C267.295868,140.772018 265.534119,142.073212 261.080597,142.017349 
	C256.867096,141.964523 254.689728,141.205429 254.791885,136.263321 
	C255.067062,122.953056 254.934082,109.631958 254.761627,96.317780 
	C254.739441,94.605064 253.651733,91.517410 252.841583,91.443779 
	C249.314789,91.123238 245.704727,91.647614 242.137878,91.997398 
	C241.896820,92.021042 241.616119,93.132576 241.601120,93.744217 
	C241.389999,102.351913 241.045792,110.961586 241.090988,119.568909 
	C241.139709,128.850067 242.190552,138.171936 241.563904,147.391724 
	C241.238983,152.172424 242.581909,152.831131 246.460281,152.781952 
	C254.448547,152.680649 262.439209,152.769775 271.405334,152.778030 
M205.906540,134.498901 
	C205.911682,121.667023 205.997070,108.834053 205.822784,96.004616 
	C205.800415,94.357346 204.609695,91.456955 203.649719,91.320427 
	C200.260635,90.838486 196.493118,90.633232 193.387360,91.756256 
	C192.200439,92.185440 192.428543,96.482475 191.971710,99.009628 
	C191.864655,99.601929 191.594833,100.164803 191.480972,100.501442 
	C188.852722,100.315971 186.548447,99.976646 184.252594,100.026299 
	C178.594559,100.148643 174.412384,103.513374 174.259918,109.069786 
	C173.940186,120.722504 173.865952,132.405975 174.366791,144.047745 
	C174.645401,150.523880 179.165070,154.737946 184.775742,153.519104 
	C190.532181,152.268570 196.111801,153.042908 201.758774,152.817017 
	C204.726532,152.698303 205.915329,151.414444 205.857773,148.495514 
	C205.772354,144.164963 205.879883,139.830627 205.906540,134.498901 
M314.997650,115.500000 
	C315.022400,126.329155 315.208282,137.161438 314.998413,147.986038 
	C314.904846,152.811005 317.711212,152.911774 321.132050,152.801712 
	C324.398987,152.696609 328.157532,153.591797 327.931366,148.177811 
	C327.745972,143.739822 327.893555,139.287949 327.893555,134.842224 
	C330.034760,138.248642 331.253937,141.799179 332.469086,145.351089 
	C335.182007,153.280853 335.423157,153.360397 343.867737,152.820175 
	C347.214600,152.606079 348.369263,151.479263 347.169617,148.095047 
	C344.946198,141.822800 343.149597,135.394363 340.791656,129.176453 
	C339.286316,125.206985 339.221985,121.618431 340.786743,117.643448 
	C342.943329,112.165077 344.583954,106.483620 346.750305,99.973503 
	C343.559662,99.973503 341.410278,100.210045 339.332214,99.925507 
	C334.642853,99.283409 332.174927,101.260559 331.217529,105.795090 
	C330.748047,108.018738 329.729065,110.126373 328.958771,112.286514 
	C327.954437,106.488441 327.750854,100.995285 328.014404,95.524620 
	C328.255280,90.524353 325.032043,90.797768 321.776947,90.895233 
	C318.573608,90.991150 314.797852,90.018936 314.993286,95.509308 
	C315.218323,101.831619 315.016724,108.169121 314.997650,115.500000 
M313.000000,130.499969 
	C312.979370,123.840401 313.004944,117.180260 312.921417,110.521477 
	C312.868103,106.272644 311.616791,102.417824 307.308685,100.816948 
	C303.328949,99.338097 299.171997,98.876717 295.822876,102.536736 
	C292.479095,98.205986 287.940216,100.033394 284.010101,100.541000 
	C283.099518,100.658607 282.168427,104.660995 282.138153,106.887924 
	C281.954987,120.371185 282.232697,133.862701 281.917267,147.341187 
	C281.795166,152.559601 284.451721,152.896835 288.422882,152.851807 
	C292.299805,152.807861 295.172943,152.677124 295.001831,147.375824 
	C294.669067,137.064468 294.820618,126.732178 295.020325,116.413383 
	C295.060822,114.321426 296.201263,112.250763 296.834625,110.170280 
	C297.535675,110.238869 298.236725,110.307465 298.937775,110.376053 
	C299.315033,112.334045 299.993713,114.288193 300.018677,116.250671 
	C300.143738,126.072220 300.086182,135.895996 300.115295,145.718918 
	C300.136047,152.710190 300.210693,152.776031 306.411652,152.785919 
	C312.840637,152.796173 312.909027,152.736313 312.954529,145.984512 
	C312.987061,141.156418 312.985962,136.328079 313.000000,130.499969 
M153.977570,100.049561 
	C145.770218,101.686447 141.483887,105.982254 141.288498,114.289429 
	C141.077698,123.251694 141.339157,132.271851 142.148804,141.198334 
	C142.975571,150.313507 148.650223,154.139832 159.174667,153.762619 
	C167.065018,153.479828 172.202347,148.311935 172.815765,140.040421 
	C173.385971,132.351761 172.774689,131.851196 165.104675,131.925400 
	C161.586151,131.959457 159.669067,132.982819 160.066910,136.791687 
	C160.152725,137.613220 160.295563,138.583344 159.959564,139.260406 
	C159.364120,140.460236 158.421753,141.487930 157.624573,142.587662 
	C156.730240,141.412720 155.333725,140.344345 155.056656,139.038437 
	C154.616501,136.963730 155.004745,134.726395 154.895798,132.565247 
	C154.727661,129.230499 156.078262,127.885857 159.555664,127.759918 
	C173.272934,127.263145 173.269379,127.165039 172.878601,113.343437 
	C172.641220,104.947319 167.836685,100.204277 159.354889,100.014534 
	C157.855835,99.980995 156.355225,100.016853 153.977570,100.049561 
M219.945374,120.500320 
	C219.934250,115.188217 219.743805,109.868744 219.961884,104.566071 
	C220.184967,99.142258 216.471756,100.014915 213.226807,99.946396 
	C209.963898,99.877487 206.933289,99.613747 207.004852,104.573807 
	C207.213135,119.013206 207.236252,133.459366 207.028534,147.898499 
	C206.954330,153.057480 210.012161,152.858734 213.525711,152.835541 
	C217.002106,152.812592 220.164780,153.107162 219.996384,147.891525 
	C219.712662,139.103073 219.937149,130.298218 219.945374,120.500320 
M390.388733,83.856979 
	C385.910065,83.851738 381.390991,83.498657 376.972656,84.012390 
	C375.204803,84.217934 372.839844,86.012138 372.197052,87.651772 
	C371.134674,90.361877 372.961121,92.309662 375.863922,92.875992 
	C377.618958,93.218391 379.382294,93.654533 381.156067,93.734360 
	C384.270691,93.874527 387.396210,93.773514 390.630219,93.773514 
	C390.163361,98.639305 389.535706,102.991478 389.403564,107.358650 
	C389.320862,110.091644 390.666718,112.020187 393.952026,111.886482 
	C396.577942,111.779617 398.951477,111.899445 399.056152,108.177643 
	C399.204193,102.915184 399.811066,97.665688 399.961182,92.403221 
	C400.202301,83.953987 400.112152,83.951416 390.388733,83.856979 
M375.122711,121.947418 
	C376.255249,125.092567 378.684418,126.022247 381.682983,125.428261 
	C384.784912,124.813805 384.897675,122.380104 385.092957,119.699898 
	C385.496552,114.161072 385.797791,108.509918 387.203857,103.185616 
	C388.152100,99.594971 387.400848,98.158623 384.160370,97.915047 
	C377.408783,97.407555 370.635345,97.196091 363.873047,96.823990 
	C360.376617,96.631592 358.050903,97.674332 357.958069,101.686836 
	C357.863861,105.758888 360.477844,106.742111 363.729797,106.848984 
	C367.671112,106.978516 371.619904,106.879707 376.360596,106.879707 
	C375.875732,112.043785 375.449585,116.582565 375.122711,121.947418 
M278.440521,176.539719 
	C279.801270,176.514816 281.762390,177.050186 282.408264,176.358124 
	C284.219635,174.417221 285.488373,171.969879 287.196259,169.381134 
	C287.085510,169.278870 286.541718,168.725250 285.943542,168.238464 
	C285.318573,167.729874 284.641235,167.285614 283.620361,166.548721 
	C287.377563,165.367691 289.022461,166.360962 289.039337,169.767639 
	C289.048401,171.592407 288.812408,173.528381 289.352386,175.199127 
	C289.674774,176.196609 291.285248,176.777802 292.316681,177.546143 
	C292.883087,173.953064 293.726532,170.372498 293.889648,166.761200 
	C293.962433,165.149185 292.710297,163.454819 291.938721,161.856140 
	C291.843964,161.659912 290.998383,161.803055 290.502533,161.826859 
	C276.568573,162.495926 278.065796,159.412872 278.056030,174.264572 
	C278.055725,174.759995 278.147003,175.255463 278.440521,176.539719 
M306.891785,177.702118 
	C307.865387,177.014542 309.619843,176.389572 309.680847,175.628830 
	C309.985046,171.834885 309.966736,167.998337 309.751465,164.194336 
	C309.710907,163.477722 308.336853,162.485367 307.435425,162.294571 
	C306.853516,162.171387 305.698120,163.132477 305.360199,163.865891 
	C304.864441,164.941803 304.870148,166.248749 304.526093,168.248077 
	C303.172546,166.408493 302.528107,164.929153 301.399841,164.154083 
	C300.031952,163.214401 298.273010,162.559784 296.644196,162.466873 
	C296.188538,162.440872 295.310822,164.791275 295.132019,166.119583 
	C294.868317,168.078125 294.720428,170.173370 295.147003,172.070114 
	C295.585693,174.020721 296.773071,175.802994 297.632812,177.658920 
	C298.540283,175.964966 299.431152,174.261627 300.376160,172.588882 
	C300.494476,172.379456 300.898621,172.331512 299.865631,172.798218 
	C302.245789,174.605011 304.204346,176.091797 306.891785,177.702118 
M233.346771,135.839172 
	C236.588058,135.795547 240.110687,136.638794 240.071762,131.243866 
	C240.033554,125.952385 236.408264,126.684792 233.249481,126.475327 
	C230.948532,126.322739 228.627975,126.494865 226.319611,126.418282 
	C223.155869,126.313324 220.954773,126.831932 220.949356,130.909698 
	C220.943909,135.028122 222.882248,136.067505 226.459564,135.833603 
	C228.431427,135.704666 230.419388,135.822357 233.346771,135.839172 
M225.997772,168.585938 
	C226.006409,170.241623 225.830139,171.925964 226.080734,173.544174 
	C226.290588,174.899353 226.999100,176.177307 227.486801,177.489487 
	C228.976990,176.927322 230.467194,176.365158 231.673904,175.909927 
	C233.662247,176.626236 235.619720,177.331421 237.405045,177.974594 
	C237.654449,174.779037 237.957443,172.468796 237.979523,170.155869 
	C238.000153,167.997803 238.379837,164.366684 237.452835,163.952072 
	C234.635834,162.692093 231.244598,162.290527 228.119781,162.441422 
	C227.332031,162.479431 226.704330,165.832382 225.997772,168.585938 
M335.401215,163.996231 
	C332.260864,163.330170 329.141235,162.433472 325.966675,162.147720 
	C325.088654,162.068710 323.310883,163.735031 323.213898,164.724777 
	C322.877167,168.161316 322.885254,171.674408 323.239624,175.109131 
	C323.342377,176.105453 324.989166,177.634995 326.023315,177.716812 
	C329.556641,177.996384 333.376282,178.767532 336.021729,175.163055 
	C338.651611,171.579849 338.143433,168.082230 335.401215,163.996231 
M319.442993,174.137726 
	C318.612244,173.833237 317.781494,173.528763 316.804199,173.170563 
	C318.313232,171.914383 319.473663,170.948380 320.634094,169.982376 
	C319.459381,168.879578 318.284637,167.776779 316.890167,166.467667 
	C317.794189,166.219574 318.508972,166.188965 319.016144,165.848785 
	C319.988312,165.196777 320.842529,164.368958 321.745697,163.614075 
	C320.797882,162.904556 319.934143,161.758270 318.888489,161.556885 
	C312.439514,160.314850 311.006439,161.604843 311.053650,168.231735 
	C311.066650,170.055466 310.818054,171.936172 311.188660,173.684937 
	C311.488708,175.100632 312.392700,177.364746 313.282562,177.493088 
	C315.793884,177.855301 318.435883,177.311935 321.026367,177.125458 
	C320.715698,176.194916 320.405029,175.264389 319.442993,174.137726 
M212.902405,162.168610 
	C211.210571,164.277786 210.164841,174.788788 211.502014,176.639572 
	C211.773773,177.015701 212.278427,177.530136 212.627197,177.495255 
	C215.269135,177.231140 217.899002,176.846024 220.532623,176.498657 
	C219.142319,175.272537 217.752014,174.046402 216.404922,172.858383 
	C217.652100,171.996231 219.115692,170.984482 220.579300,169.972733 
	C219.134506,168.943497 217.689728,167.914246 216.426407,167.014282 
	C217.773621,165.865524 219.190277,164.657547 220.606949,163.449585 
	C218.654388,162.948227 216.704971,162.433945 214.746017,161.958954 
	C214.439163,161.884537 214.089035,161.988708 212.902405,162.168610 
M267.015198,172.310410 
	C267.080536,173.472427 266.761597,175.401703 267.279114,175.660873 
	C269.297150,176.671585 271.546661,177.354294 273.782135,177.726364 
	C274.604248,177.863190 275.625885,176.801224 276.556519,176.286072 
	C275.200378,175.385361 273.830902,174.503586 272.501862,173.564468 
	C272.291473,173.415787 272.263763,173.008560 272.219452,172.894989 
	C273.699066,171.981628 275.148102,171.087158 276.597107,170.192688 
	C275.127441,169.014343 273.657806,167.836014 271.996002,166.503616 
	C272.706177,166.269104 273.382568,166.187668 273.886139,165.849136 
	C274.852783,165.199356 275.721436,164.403732 276.630737,163.668640 
	C275.556702,163.104599 274.526855,162.174683 273.401123,162.038696 
	C267.997528,161.386047 267.009399,162.369415 267.025757,167.887100 
	C267.029205,169.053452 267.026154,170.219849 267.015198,172.310410 
M209.038544,88.199394 
	C208.435104,90.710800 206.591309,94.034584 207.561249,95.515503 
	C208.627823,97.143974 212.250275,97.280113 214.819122,97.697998 
	C218.192795,98.246803 220.002609,97.009781 220.050140,93.128563 
	C220.097534,89.258095 218.773483,87.565186 214.876221,87.935165 
	C213.232025,88.091263 211.566116,88.018654 209.038544,88.199394 
M269.909180,88.025383 
	C269.002716,88.822731 267.585236,89.458908 267.274536,90.444130 
	C265.537872,95.951202 267.501740,97.774445 274.502258,97.812744 
	C277.921326,97.831444 280.173309,97.338081 280.095062,93.004311 
	C280.024292,89.086281 278.565399,87.543892 274.771881,87.897568 
	C273.458527,88.020012 272.126251,87.939606 269.909180,88.025383 
z"/>
<path fill="#353440" opacity="1.000000" stroke="none" 
	d="
M91.911552,109.987015 
	C91.998505,105.661720 92.131393,101.336700 92.158310,97.011032 
	C92.181053,93.355667 94.009674,91.652115 97.574753,91.181442 
	C110.055450,89.533737 111.194069,90.367798 112.821648,103.048477 
	C113.223152,106.176674 113.559059,109.313301 113.960770,112.441467 
	C114.338844,115.385544 114.763947,118.323593 116.009911,121.534561 
	C116.366623,120.500427 116.905327,119.491226 117.050919,118.428185 
	C118.109474,110.699493 119.235970,102.974892 120.023529,95.216774 
	C120.355667,91.945000 121.935089,90.933289 124.881447,90.978653 
	C128.375626,91.032448 131.876938,91.094154 135.365097,90.933701 
	C138.886597,90.771706 139.979599,92.414261 139.961731,95.742165 
	C139.867966,113.217445 139.807632,130.694321 139.963318,148.168625 
	C140.007217,153.096893 136.968018,152.752655 133.688293,152.875427 
	C130.107330,153.009491 128.042480,152.095886 128.132309,147.916031 
	C128.324905,138.953796 128.191345,129.984558 127.181290,120.921082 
	C125.750923,129.423218 124.181519,137.905273 122.950180,146.436127 
	C122.354759,150.561264 121.294792,152.989029 116.247276,153.020874 
	C111.106125,153.053314 109.698341,150.681763 109.044563,146.340347 
	C107.814339,138.171051 106.283112,130.047073 103.804703,121.944130 
	C103.804703,129.284561 103.814949,136.625000 103.802132,143.965408 
	C103.785667,153.396393 101.998322,154.647308 91.997574,151.909836 
	C91.997574,150.227600 91.997574,148.441666 91.996231,145.808807 
	C91.967110,133.303604 91.939331,121.645309 91.911552,109.987015 
z"/>
<path fill="#353540" opacity="1.000000" stroke="none" 
	d="
M270.917114,152.779297 
	C262.439209,152.769775 254.448547,152.680649 246.460281,152.781952 
	C242.581909,152.831131 241.238983,152.172424 241.563904,147.391724 
	C242.190552,138.171936 241.139709,128.850067 241.090988,119.568909 
	C241.045792,110.961586 241.389999,102.351913 241.601120,93.744217 
	C241.616119,93.132576 241.896820,92.021042 242.137878,91.997398 
	C245.704727,91.647614 249.314789,91.123238 252.841583,91.443779 
	C253.651733,91.517410 254.739441,94.605064 254.761627,96.317780 
	C254.934082,109.631958 255.067062,122.953056 254.791885,136.263321 
	C254.689728,141.205429 256.867096,141.964523 261.080597,142.017349 
	C265.534119,142.073212 267.295868,140.772018 267.162476,136.071259 
	C266.869873,125.759682 267.298859,115.427299 266.990692,105.116646 
	C266.826202,99.613205 270.141479,99.993759 273.785004,99.891640 
	C277.524902,99.786827 280.129303,100.087585 280.032471,105.068665 
	C279.767212,118.712669 279.953125,132.365234 279.938080,146.014389 
	C279.930634,152.765793 279.908386,152.765762 270.917114,152.779297 
z"/>
<path fill="#353540" opacity="1.000000" stroke="none" 
	d="
M205.905914,134.998398 
	C205.879883,139.830627 205.772354,144.164963 205.857773,148.495514 
	C205.915329,151.414444 204.726532,152.698303 201.758774,152.817017 
	C196.111801,153.042908 190.532181,152.268570 184.775742,153.519104 
	C179.165070,154.737946 174.645401,150.523880 174.366791,144.047745 
	C173.865952,132.405975 173.940186,120.722504 174.259918,109.069786 
	C174.412384,103.513374 178.594559,100.148643 184.252594,100.026299 
	C186.548447,99.976646 188.852722,100.315971 191.480972,100.501442 
	C191.594833,100.164803 191.864655,99.601929 191.971710,99.009628 
	C192.428543,96.482475 192.200439,92.185440 193.387360,91.756256 
	C196.493118,90.633232 200.260635,90.838486 203.649719,91.320427 
	C204.609695,91.456955 205.800415,94.357346 205.822784,96.004616 
	C205.997070,108.834053 205.911682,121.667023 205.905914,134.998398 
M186.926865,126.501022 
	C186.943420,130.328842 186.685760,134.187149 187.106155,137.970093 
	C187.284210,139.572357 188.886719,141.016342 189.841812,142.532257 
	C190.593704,141.056274 191.952850,139.597565 191.995422,138.101410 
	C192.213089,130.451904 192.174133,122.791046 192.020859,115.138252 
	C191.988556,113.525208 191.101379,111.929291 190.608109,110.325485 
	C190.055603,110.265213 189.503082,110.204948 188.950562,110.144684 
	C188.292801,111.771591 187.213501,113.361084 187.065094,115.033203 
	C186.757202,118.502296 186.943481,122.015266 186.926865,126.501022 
z"/>
<path fill="#353540" opacity="1.000000" stroke="none" 
	d="
M314.999023,115.000015 
	C315.016724,108.169121 315.218323,101.831619 314.993286,95.509308 
	C314.797852,90.018936 318.573608,90.991150 321.776947,90.895233 
	C325.032043,90.797768 328.255280,90.524353 328.014404,95.524620 
	C327.750854,100.995285 327.954437,106.488441 328.958771,112.286514 
	C329.729065,110.126373 330.748047,108.018738 331.217529,105.795090 
	C332.174927,101.260559 334.642853,99.283409 339.332214,99.925507 
	C341.410278,100.210045 343.559662,99.973503 346.750305,99.973503 
	C344.583954,106.483620 342.943329,112.165077 340.786743,117.643448 
	C339.221985,121.618431 339.286316,125.206985 340.791656,129.176453 
	C343.149597,135.394363 344.946198,141.822800 347.169617,148.095047 
	C348.369263,151.479263 347.214600,152.606079 343.867737,152.820175 
	C335.423157,153.360397 335.182007,153.280853 332.469086,145.351089 
	C331.253937,141.799179 330.034760,138.248642 327.893555,134.842224 
	C327.893555,139.287949 327.745972,143.739822 327.931366,148.177811 
	C328.157532,153.591797 324.398987,152.696609 321.132050,152.801712 
	C317.711212,152.911774 314.904846,152.811005 314.998413,147.986038 
	C315.208282,137.161438 315.022400,126.329155 314.999023,115.000015 
z"/>
<path fill="#353540" opacity="1.000000" stroke="none" 
	d="
M312.999939,130.999908 
	C312.985962,136.328079 312.987061,141.156418 312.954529,145.984512 
	C312.909027,152.736313 312.840637,152.796173 306.411652,152.785919 
	C300.210693,152.776031 300.136047,152.710190 300.115295,145.718918 
	C300.086182,135.895996 300.143738,126.072220 300.018677,116.250671 
	C299.993713,114.288193 299.315033,112.334045 298.937775,110.376053 
	C298.236725,110.307465 297.535675,110.238869 296.834625,110.170280 
	C296.201263,112.250763 295.060822,114.321426 295.020325,116.413383 
	C294.820618,126.732178 294.669067,137.064468 295.001831,147.375824 
	C295.172943,152.677124 292.299805,152.807861 288.422882,152.851807 
	C284.451721,152.896835 281.795166,152.559601 281.917267,147.341187 
	C282.232697,133.862701 281.954987,120.371185 282.138153,106.887924 
	C282.168427,104.660995 283.099518,100.658607 284.010101,100.541000 
	C287.940216,100.033394 292.479095,98.205986 295.822876,102.536736 
	C299.171997,98.876717 303.328949,99.338097 307.308685,100.816948 
	C311.616791,102.417824 312.868103,106.272644 312.921417,110.521477 
	C313.004944,117.180260 312.979370,123.840401 312.999939,130.999908 
z"/>
<path fill="#353440" opacity="1.000000" stroke="none" 
	d="
M154.416443,100.035110 
	C156.355225,100.016853 157.855835,99.980995 159.354889,100.014534 
	C167.836685,100.204277 172.641220,104.947319 172.878601,113.343437 
	C173.269379,127.165039 173.272934,127.263145 159.555664,127.759918 
	C156.078262,127.885857 154.727661,129.230499 154.895798,132.565247 
	C155.004745,134.726395 154.616501,136.963730 155.056656,139.038437 
	C155.333725,140.344345 156.730240,141.412720 157.624573,142.587662 
	C158.421753,141.487930 159.364120,140.460236 159.959564,139.260406 
	C160.295563,138.583344 160.152725,137.613220 160.066910,136.791687 
	C159.669067,132.982819 161.586151,131.959457 165.104675,131.925400 
	C172.774689,131.851196 173.385971,132.351761 172.815765,140.040421 
	C172.202347,148.311935 167.065018,153.479828 159.174667,153.762619 
	C148.650223,154.139832 142.975571,150.313507 142.148804,141.198334 
	C141.339157,132.271851 141.077698,123.251694 141.288498,114.289429 
	C141.483887,105.982254 145.770218,101.686447 154.416443,100.035110 
M159.995529,116.472191 
	C159.101562,114.408463 158.207596,112.344742 157.313629,110.281021 
	C156.520004,112.376465 155.722870,114.470604 154.940338,116.570183 
	C154.886536,116.714561 154.878769,116.940147 154.955765,117.059357 
	C155.746964,118.284309 156.560104,119.495079 157.367111,120.709808 
	C158.236816,119.575371 159.106506,118.440933 159.995529,116.472191 
z"/>
<path fill="#353440" opacity="1.000000" stroke="none" 
	d="
M219.946625,121.000290 
	C219.937149,130.298218 219.712662,139.103073 219.996384,147.891525 
	C220.164780,153.107162 217.002106,152.812592 213.525711,152.835541 
	C210.012161,152.858734 206.954330,153.057480 207.028534,147.898499 
	C207.236252,133.459366 207.213135,119.013206 207.004852,104.573807 
	C206.933289,99.613747 209.963898,99.877487 213.226807,99.946396 
	C216.471756,100.014915 220.184967,99.142258 219.961884,104.566071 
	C219.743805,109.868744 219.934250,115.188217 219.946625,121.000290 
z"/>
<path fill="#22C094" opacity="1.000000" stroke="none" 
	d="
M390.865906,83.858810 
	C400.112152,83.951416 400.202301,83.953987 399.961182,92.403221 
	C399.811066,97.665688 399.204193,102.915184 399.056152,108.177643 
	C398.951477,111.899445 396.577942,111.779617 393.952026,111.886482 
	C390.666718,112.020187 389.320862,110.091644 389.403564,107.358650 
	C389.535706,102.991478 390.163361,98.639305 390.630219,93.773514 
	C387.396210,93.773514 384.270691,93.874527 381.156067,93.734360 
	C379.382294,93.654533 377.618958,93.218391 375.863922,92.875992 
	C372.961121,92.309662 371.134674,90.361877 372.197052,87.651772 
	C372.839844,86.012138 375.204803,84.217934 376.972656,84.012390 
	C381.390991,83.498657 385.910065,83.851738 390.865906,83.858810 
z"/>
<path fill="#22C396" opacity="1.000000" stroke="none" 
	d="
M375.073059,121.534386 
	C375.449585,116.582565 375.875732,112.043785 376.360596,106.879707 
	C371.619904,106.879707 367.671112,106.978516 363.729797,106.848984 
	C360.477844,106.742111 357.863861,105.758888 357.958069,101.686836 
	C358.050903,97.674332 360.376617,96.631592 363.873047,96.823990 
	C370.635345,97.196091 377.408783,97.407555 384.160370,97.915047 
	C387.400848,98.158623 388.152100,99.594971 387.203857,103.185616 
	C385.797791,108.509918 385.496552,114.161072 385.092957,119.699898 
	C384.897675,122.380104 384.784912,124.813805 381.682983,125.428261 
	C378.684418,126.022247 376.255249,125.092567 375.073059,121.534386 
z"/>
<path fill="#2F2F37" opacity="1.000000" stroke="none" 
	d="
M245.108154,162.572998 
	C249.698380,162.355972 254.294754,161.883041 258.877197,161.992523 
	C263.636871,162.106277 265.997772,165.147263 265.924164,170.240646 
	C265.853607,175.125168 263.652283,177.616135 258.780823,177.862640 
	C255.491730,178.029099 252.182251,177.792389 248.438232,177.293823 
	C248.038040,176.088104 248.081497,175.324570 248.473816,174.500198 
	C249.764984,171.823700 250.707275,169.208038 251.888260,165.929825 
	C248.494385,165.929825 246.733429,165.929825 244.981705,165.513290 
	C245.029999,164.255508 245.069077,163.414246 245.108154,162.572998 
M260.708405,171.899323 
	C260.182251,170.047714 259.656128,168.196091 259.129974,166.344482 
	C258.261658,166.599075 256.690033,166.762421 256.643158,167.123596 
	C256.401398,168.986923 256.550385,170.900925 256.563049,172.797272 
	C257.822571,172.722458 259.082062,172.647644 260.708405,171.899323 
z"/>
<path fill="#31313A" opacity="1.000000" stroke="none" 
	d="
M278.318054,176.145325 
	C278.147003,175.255463 278.055725,174.759995 278.056030,174.264572 
	C278.065796,159.412872 276.568573,162.495926 290.502533,161.826859 
	C290.998383,161.803055 291.843964,161.659912 291.938721,161.856140 
	C292.710297,163.454819 293.962433,165.149185 293.889648,166.761200 
	C293.726532,170.372498 292.883087,173.953064 292.316681,177.546143 
	C291.285248,176.777802 289.674774,176.196609 289.352386,175.199127 
	C288.812408,173.528381 289.048401,171.592407 289.039337,169.767639 
	C289.022461,166.360962 287.377563,165.367691 283.620361,166.548721 
	C284.641235,167.285614 285.318573,167.729874 285.943542,168.238464 
	C286.541718,168.725250 287.085510,169.278870 287.196259,169.381134 
	C285.488373,171.969879 284.219635,174.417221 282.408264,176.358124 
	C281.762390,177.050186 279.801270,176.514816 278.318054,176.145325 
z"/>
<path fill="#31313A" opacity="1.000000" stroke="none" 
	d="
M306.527344,177.640350 
	C304.204346,176.091797 302.245789,174.605011 299.865631,172.798218 
	C300.898621,172.331512 300.494476,172.379456 300.376160,172.588882 
	C299.431152,174.261627 298.540283,175.964966 297.632812,177.658920 
	C296.773071,175.802994 295.585693,174.020721 295.147003,172.070114 
	C294.720428,170.173370 294.868317,168.078125 295.132019,166.119583 
	C295.310822,164.791275 296.188538,162.440872 296.644196,162.466873 
	C298.273010,162.559784 300.031952,163.214401 301.399841,164.154083 
	C302.528107,164.929153 303.172546,166.408493 304.526093,168.248077 
	C304.870148,166.248749 304.864441,164.941803 305.360199,163.865891 
	C305.698120,163.132477 306.853516,162.171387 307.435425,162.294571 
	C308.336853,162.485367 309.710907,163.477722 309.751465,164.194336 
	C309.966736,167.998337 309.985046,171.834885 309.680847,175.628830 
	C309.619843,176.389572 307.865387,177.014542 306.527344,177.640350 
z"/>
<path fill="#2F2F37" opacity="1.000000" stroke="none" 
	d="
M195.039398,173.901031 
	C195.701324,172.084732 196.853699,170.290451 196.936432,168.448135 
	C197.225220,162.016281 199.943085,159.972153 205.975616,162.016678 
	C209.489166,163.207474 210.357010,165.629120 209.571991,169.045547 
	C208.993164,171.564743 208.632294,174.134033 207.979370,177.765091 
	C206.593781,177.271194 204.554871,176.544449 202.515945,175.817688 
	C202.609039,176.075745 202.702133,176.333801 202.795227,176.591858 
	C200.465378,176.960281 198.135529,177.328720 195.399399,177.282837 
	C195.008545,175.879379 195.023972,174.890198 195.039398,173.901031 
z"/>
<path fill="#31313A" opacity="1.000000" stroke="none" 
	d="
M232.873444,135.834015 
	C230.419388,135.822357 228.431427,135.704666 226.459564,135.833603 
	C222.882248,136.067505 220.943909,135.028122 220.949356,130.909698 
	C220.954773,126.831932 223.155869,126.313324 226.319611,126.418282 
	C228.627975,126.494865 230.948532,126.322739 233.249481,126.475327 
	C236.408264,126.684792 240.033554,125.952385 240.071762,131.243866 
	C240.110687,136.638794 236.588058,135.795547 232.873444,135.834015 
z"/>
<path fill="#31313A" opacity="1.000000" stroke="none" 
	d="
M226.000427,168.123962 
	C226.704330,165.832382 227.332031,162.479431 228.119781,162.441422 
	C231.244598,162.290527 234.635834,162.692093 237.452835,163.952072 
	C238.379837,164.366684 238.000153,167.997803 237.979523,170.155869 
	C237.957443,172.468796 237.654449,174.779037 237.405045,177.974594 
	C235.619720,177.331421 233.662247,176.626236 231.673904,175.909927 
	C230.467194,176.365158 228.976990,176.927322 227.486816,177.489471 
	C226.999100,176.177307 226.290588,174.899353 226.080734,173.544174 
	C225.830139,171.925964 226.006409,170.241623 226.000427,168.123962 
z"/>
<path fill="#31313A" opacity="1.000000" stroke="none" 
	d="
M335.676910,164.279999 
	C338.143433,168.082230 338.651611,171.579849 336.021729,175.163055 
	C333.376282,178.767532 329.556641,177.996384 326.023315,177.716812 
	C324.989166,177.634995 323.342377,176.105453 323.239624,175.109131 
	C322.885254,171.674408 322.877167,168.161316 323.213898,164.724777 
	C323.310883,163.735031 325.088654,162.068710 325.966675,162.147720 
	C329.141235,162.433472 332.260864,163.330170 335.676910,164.279999 
M328.544312,166.263504 
	C328.038055,167.542053 327.187439,168.805420 327.130188,170.103775 
	C327.080841,171.222458 327.663544,172.707626 328.493286,173.398331 
	C328.984253,173.807068 330.955994,173.320267 331.444824,172.644836 
	C332.211426,171.585587 332.867676,169.826874 332.492493,168.734818 
	C332.115936,167.638824 330.419525,166.996277 328.544312,166.263504 
z"/>
<path fill="#31313A" opacity="1.000000" stroke="none" 
	d="
M181.016037,172.995834 
	C179.051773,174.643585 177.331940,176.892303 175.071442,177.811752 
	C170.612213,179.625473 166.396667,177.216110 164.860504,172.660019 
	C163.346512,168.169678 165.136292,163.988403 169.264236,162.372070 
	C174.115906,160.472351 177.793549,162.055496 180.460205,168.157471 
	C177.859909,167.541931 175.986710,166.820480 174.086395,166.740158 
	C172.668655,166.680206 170.749008,167.038559 169.924759,167.976669 
	C169.251328,168.743118 169.332596,171.149765 170.051010,171.905838 
	C170.882401,172.780792 172.772232,172.864029 174.211563,172.897003 
	C176.362289,172.946243 178.520905,172.651260 180.833588,172.765198 
	C180.991028,173.027679 181.016037,172.995834 181.016037,172.995834 
z"/>
<path fill="#31313A" opacity="1.000000" stroke="none" 
	d="
M194.994049,173.524139 
	C195.023972,174.890198 195.008545,175.879379 194.990875,177.234131 
	C191.229309,177.145508 187.480133,174.535751 183.704498,177.546600 
	C182.839828,176.285370 181.975143,175.024139 181.063248,173.379364 
	C181.016037,172.995834 180.991028,173.027679 180.980865,173.046402 
	C182.257645,170.446625 183.355881,167.708710 184.907043,165.257416 
	C185.746384,163.931046 187.367645,162.252838 188.619812,162.266190 
	C189.941254,162.280304 191.773300,163.858856 192.438110,165.216339 
	C193.644226,167.679153 194.150375,170.484741 194.994049,173.524139 
z"/>
<path fill="#2F2F37" opacity="1.000000" stroke="none" 
	d="
M319.768677,174.235779 
	C320.405029,175.264389 320.715698,176.194916 321.026367,177.125458 
	C318.435883,177.311935 315.793884,177.855301 313.282562,177.493088 
	C312.392700,177.364746 311.488708,175.100632 311.188660,173.684937 
	C310.818054,171.936172 311.066650,170.055466 311.053650,168.231735 
	C311.006439,161.604843 312.439514,160.314850 318.888489,161.556885 
	C319.934143,161.758270 320.797882,162.904556 321.745697,163.614075 
	C320.842529,164.368958 319.988312,165.196777 319.016144,165.848785 
	C318.508972,166.188965 317.794189,166.219574 316.890167,166.467667 
	C318.284637,167.776779 319.459381,168.879578 320.634094,169.982376 
	C319.473663,170.948380 318.313232,171.914383 316.804199,173.170563 
	C317.781494,173.528763 318.612244,173.833237 319.768677,174.235779 
z"/>
<path fill="#2F2F37" opacity="1.000000" stroke="none" 
	d="
M213.330658,162.089447 
	C214.089035,161.988708 214.439163,161.884537 214.746017,161.958954 
	C216.704971,162.433945 218.654388,162.948227 220.606949,163.449585 
	C219.190277,164.657547 217.773621,165.865524 216.426407,167.014282 
	C217.689728,167.914246 219.134506,168.943497 220.579285,169.972717 
	C219.115692,170.984482 217.652100,171.996231 216.404922,172.858383 
	C217.752014,174.046402 219.142319,175.272537 220.532623,176.498657 
	C217.899002,176.846024 215.269135,177.231140 212.627197,177.495255 
	C212.278427,177.530136 211.773773,177.015701 211.502014,176.639572 
	C210.164841,174.788788 211.210571,164.277786 213.330658,162.089447 
z"/>
<path fill="#31313A" opacity="1.000000" stroke="none" 
	d="
M267.020660,171.848312 
	C267.026154,170.219849 267.029205,169.053452 267.025757,167.887100 
	C267.009399,162.369415 267.997528,161.386047 273.401123,162.038696 
	C274.526855,162.174683 275.556702,163.104599 276.630737,163.668640 
	C275.721436,164.403732 274.852783,165.199356 273.886139,165.849136 
	C273.382568,166.187668 272.706177,166.269104 271.996002,166.503616 
	C273.657806,167.836014 275.127441,169.014343 276.597107,170.192688 
	C275.148102,171.087158 273.699066,171.981628 272.219452,172.894989 
	C272.263763,173.008560 272.291473,173.415787 272.501862,173.564468 
	C273.830902,174.503586 275.200378,175.385361 276.556519,176.286072 
	C275.625885,176.801224 274.604248,177.863190 273.782135,177.726364 
	C271.546661,177.354294 269.297150,176.671585 267.279114,175.660873 
	C266.761597,175.401703 267.080536,173.472427 267.020660,171.848312 
z"/>
<path fill="#353440" opacity="1.000000" stroke="none" 
	d="
M209.474304,88.124695 
	C211.566116,88.018654 213.232025,88.091263 214.876221,87.935165 
	C218.773483,87.565186 220.097534,89.258095 220.050140,93.128563 
	C220.002609,97.009781 218.192795,98.246803 214.819122,97.697998 
	C212.250275,97.280113 208.627823,97.143974 207.561249,95.515503 
	C206.591309,94.034584 208.435104,90.710800 209.474304,88.124695 
z"/>
<path fill="#353440" opacity="1.000000" stroke="none" 
	d="
M270.355896,87.988617 
	C272.126251,87.939606 273.458527,88.020012 274.771881,87.897568 
	C278.565399,87.543892 280.024292,89.086281 280.095062,93.004311 
	C280.173309,97.338081 277.921326,97.831444 274.502258,97.812744 
	C267.501740,97.774445 265.537872,95.951202 267.274536,90.444130 
	C267.585236,89.458908 269.002716,88.822731 270.355896,87.988617 
z"/>
<path fill="#353540" opacity="1.000000" stroke="none" 
	d="
M248.124969,174.561035 
	C248.081497,175.324570 248.038040,176.088104 247.975159,177.230896 
	C240.610977,178.081467 240.088730,177.605316 240.041031,170.257507 
	C240.027191,168.128174 240.083191,165.998398 240.289505,163.278000 
	C240.650696,162.509140 240.816422,162.319611 240.969009,162.118591 
	C242.127121,162.201477 243.285233,162.284363 244.775757,162.470123 
	C245.069077,163.414246 245.029999,164.255508 245.027405,165.830612 
	C245.363174,167.118210 245.662460,167.671951 245.966919,168.562225 
	C245.959412,169.794189 245.946762,170.689590 245.756073,171.835556 
	C246.427017,172.911087 247.275986,173.736069 248.124969,174.561035 
z"/>
<path fill="#00003F" opacity="1.000000" stroke="none" 
	d="
M91.706619,110.345703 
	C91.939331,121.645309 91.967110,133.303604 91.963173,145.415833 
	C91.620575,142.272110 91.051033,138.674438 91.051300,135.076813 
	C91.051895,126.952660 91.334068,118.828529 91.706619,110.345703 
z"/>
<path fill="#2F2F37" opacity="1.000000" stroke="none" 
	d="
M240.786530,162.198975 
	C240.816422,162.319611 240.650696,162.509140 240.335098,162.816360 
	C240.241379,162.667297 240.376602,162.445236 240.786530,162.198975 
z"/>
<path fill="#000000" opacity="1.000000" stroke="none" 
	d="
M186.926727,126.005608 
	C186.943481,122.015266 186.757202,118.502296 187.065094,115.033203 
	C187.213501,113.361084 188.292801,111.771591 188.950562,110.144684 
	C189.503082,110.204948 190.055603,110.265213 190.608109,110.325485 
	C191.101379,111.929291 191.988556,113.525208 192.020859,115.138252 
	C192.174133,122.791046 192.213089,130.451904 191.995422,138.101410 
	C191.952850,139.597565 190.593704,141.056274 189.841812,142.532257 
	C188.886719,141.016342 187.284210,139.572357 187.106155,137.970093 
	C186.685760,134.187149 186.943420,130.328842 186.926727,126.005608 
z"/>
<path fill="#000000" opacity="1.000000" stroke="none" 
	d="
M159.985870,116.889343 
	C159.106506,118.440933 158.236816,119.575371 157.367111,120.709808 
	C156.560104,119.495079 155.746964,118.284309 154.955765,117.059357 
	C154.878769,116.940147 154.886536,116.714561 154.940338,116.570183 
	C155.722870,114.470604 156.520004,112.376465 157.313629,110.281021 
	C158.207596,112.344742 159.101562,114.408463 159.985870,116.889343 
z"/>
<path fill="#000000" opacity="1.000000" stroke="none" 
	d="
M260.524994,172.236084 
	C259.082062,172.647644 257.822571,172.722458 256.563049,172.797272 
	C256.550385,170.900925 256.401398,168.986923 256.643158,167.123596 
	C256.690033,166.762421 258.261658,166.599075 259.129974,166.344482 
	C259.656128,168.196091 260.182251,170.047714 260.524994,172.236084 
z"/>
<path fill="#000000" opacity="1.000000" stroke="none" 
	d="
M248.473816,174.500198 
	C247.275986,173.736069 246.427017,172.911087 246.116486,171.900513 
	C247.617523,171.100403 248.580109,170.485901 249.542694,169.871384 
	C248.349045,169.322830 247.155396,168.774261 245.961761,168.225693 
	C245.662460,167.671951 245.363174,167.118210 245.018188,166.247147 
	C246.733429,165.929825 248.494385,165.929825 251.888260,165.929825 
	C250.707275,169.208038 249.764984,171.823700 248.473816,174.500198 
z"/>
<path fill="#000000" opacity="1.000000" stroke="none" 
	d="
M328.922943,166.209259 
	C330.419525,166.996277 332.115936,167.638824 332.492493,168.734818 
	C332.867676,169.826874 332.211426,171.585587 331.444824,172.644836 
	C330.955994,173.320267 328.984253,173.807068 328.493286,173.398331 
	C327.663544,172.707626 327.080841,171.222458 327.130188,170.103775 
	C327.187439,168.805420 328.038055,167.542053 328.922943,166.209259 
z"/>
<path fill="#2F2F37" opacity="1.000000" stroke="none" 
	d="
M245.966919,168.562225 
	C247.155396,168.774261 248.349045,169.322830 249.542694,169.871384 
	C248.580109,170.485901 247.617523,171.100403 246.294525,171.649963 
	C245.946762,170.689590 245.959412,169.794189 245.966919,168.562225 
z"/>
</svg>